<mxfile host="app.diagrams.net" modified="2023-09-28T13:43:06.813Z" agent="Mozilla/5.0 (Windows NT 10.0; Win64; x64; rv:109.0) Gecko/20100101 Firefox/117.0" etag="7U4wFGxP-nyKrd1S5TLR" version="22.0.0" type="github">
  <diagram name="Page-1" id="b5NVP_9jVtskwhASZ5UH">
    <mxGraphModel dx="3183" dy="1240" grid="1" gridSize="10" guides="1" tooltips="1" connect="1" arrows="1" fold="1" page="1" pageScale="1" pageWidth="850" pageHeight="1100" math="0" shadow="0">
      <root>
        <mxCell id="0" />
        <mxCell id="1" parent="0" />
        <mxCell id="9emtBQFoJuCTRoUykFiL-3" style="edgeStyle=orthogonalEdgeStyle;rounded=0;orthogonalLoop=1;jettySize=auto;html=1;" parent="1" source="cFowtM8nGDFWOl0pQlT--1" target="9emtBQFoJuCTRoUykFiL-2" edge="1">
          <mxGeometry relative="1" as="geometry" />
        </mxCell>
        <mxCell id="cFowtM8nGDFWOl0pQlT--1" value="1. Welcome" style="rounded=0;whiteSpace=wrap;html=1;fillColor=#76608a;strokeColor=#432D57;fontColor=#ffffff;" parent="1" vertex="1">
          <mxGeometry x="-40" y="-307" width="75" height="40" as="geometry" />
        </mxCell>
        <mxCell id="9emtBQFoJuCTRoUykFiL-29" style="edgeStyle=orthogonalEdgeStyle;rounded=0;orthogonalLoop=1;jettySize=auto;html=1;" parent="1" source="9emtBQFoJuCTRoUykFiL-1" target="9emtBQFoJuCTRoUykFiL-28" edge="1">
          <mxGeometry relative="1" as="geometry" />
        </mxCell>
        <mxCell id="9emtBQFoJuCTRoUykFiL-1" value="10. Suggest all suitable&lt;br&gt;Restaurant" style="rounded=0;whiteSpace=wrap;html=1;fillColor=#76608a;fontColor=#ffffff;strokeColor=#432D57;" parent="1" vertex="1">
          <mxGeometry x="490" y="944.25" width="120" height="60" as="geometry" />
        </mxCell>
        <mxCell id="IY48xeBdSD5oEzKYbFt_-39" style="edgeStyle=orthogonalEdgeStyle;rounded=0;orthogonalLoop=1;jettySize=auto;html=1;exitX=0.5;exitY=1;exitDx=0;exitDy=0;entryX=0.5;entryY=0;entryDx=0;entryDy=0;" edge="1" parent="1" source="9emtBQFoJuCTRoUykFiL-2" target="9emtBQFoJuCTRoUykFiL-4">
          <mxGeometry relative="1" as="geometry" />
        </mxCell>
        <mxCell id="9emtBQFoJuCTRoUykFiL-2" value="Express preferences" style="ellipse;whiteSpace=wrap;html=1;fillColor=#6d8764;fontColor=#ffffff;strokeColor=#3A5431;" parent="1" vertex="1">
          <mxGeometry x="-62.5" y="-247" width="120" height="50" as="geometry" />
        </mxCell>
        <mxCell id="OZZsg3iI7NkFLa2h2YQp-29" style="edgeStyle=orthogonalEdgeStyle;rounded=0;orthogonalLoop=1;jettySize=auto;html=1;exitX=1;exitY=0.5;exitDx=0;exitDy=0;entryX=0;entryY=0.5;entryDx=0;entryDy=0;" parent="1" source="9emtBQFoJuCTRoUykFiL-4" target="9emtBQFoJuCTRoUykFiL-9" edge="1">
          <mxGeometry relative="1" as="geometry" />
        </mxCell>
        <mxCell id="OZZsg3iI7NkFLa2h2YQp-30" value="no" style="edgeLabel;html=1;align=center;verticalAlign=middle;resizable=0;points=[];" parent="OZZsg3iI7NkFLa2h2YQp-29" vertex="1" connectable="0">
          <mxGeometry x="0.0924" y="1" relative="1" as="geometry">
            <mxPoint x="1" as="offset" />
          </mxGeometry>
        </mxCell>
        <mxCell id="IY48xeBdSD5oEzKYbFt_-19" style="edgeStyle=orthogonalEdgeStyle;rounded=0;orthogonalLoop=1;jettySize=auto;html=1;exitX=0.5;exitY=1;exitDx=0;exitDy=0;" edge="1" parent="1" source="9emtBQFoJuCTRoUykFiL-4" target="IY48xeBdSD5oEzKYbFt_-17">
          <mxGeometry relative="1" as="geometry" />
        </mxCell>
        <mxCell id="IY48xeBdSD5oEzKYbFt_-22" value="yes" style="edgeLabel;html=1;align=center;verticalAlign=middle;resizable=0;points=[];" vertex="1" connectable="0" parent="IY48xeBdSD5oEzKYbFt_-19">
          <mxGeometry x="-0.4732" y="-1" relative="1" as="geometry">
            <mxPoint as="offset" />
          </mxGeometry>
        </mxCell>
        <mxCell id="9emtBQFoJuCTRoUykFiL-4" value="Area&lt;br&gt;expressed?" style="rhombus;whiteSpace=wrap;html=1;fillColor=#76608a;fontColor=#ffffff;strokeColor=#432D57;" parent="1" vertex="1">
          <mxGeometry x="-52.5" y="-127" width="100" height="80" as="geometry" />
        </mxCell>
        <mxCell id="9emtBQFoJuCTRoUykFiL-17" value="no" style="edgeStyle=orthogonalEdgeStyle;rounded=0;orthogonalLoop=1;jettySize=auto;html=1;" parent="1" source="9emtBQFoJuCTRoUykFiL-5" target="9emtBQFoJuCTRoUykFiL-15" edge="1">
          <mxGeometry relative="1" as="geometry" />
        </mxCell>
        <mxCell id="IY48xeBdSD5oEzKYbFt_-11" style="edgeStyle=orthogonalEdgeStyle;rounded=0;orthogonalLoop=1;jettySize=auto;html=1;exitX=0.5;exitY=1;exitDx=0;exitDy=0;entryX=0.5;entryY=0;entryDx=0;entryDy=0;" edge="1" parent="1" source="9emtBQFoJuCTRoUykFiL-5" target="IY48xeBdSD5oEzKYbFt_-9">
          <mxGeometry relative="1" as="geometry" />
        </mxCell>
        <mxCell id="IY48xeBdSD5oEzKYbFt_-16" value="yes" style="edgeLabel;html=1;align=center;verticalAlign=middle;resizable=0;points=[];" vertex="1" connectable="0" parent="IY48xeBdSD5oEzKYbFt_-11">
          <mxGeometry x="-0.2672" y="3" relative="1" as="geometry">
            <mxPoint as="offset" />
          </mxGeometry>
        </mxCell>
        <mxCell id="9emtBQFoJuCTRoUykFiL-5" value="Price range&lt;br&gt;expressed?" style="rhombus;whiteSpace=wrap;html=1;fillColor=#76608a;fontColor=#ffffff;strokeColor=#432D57;" parent="1" vertex="1">
          <mxGeometry x="-52.5" y="200.25" width="100" height="85" as="geometry" />
        </mxCell>
        <mxCell id="9emtBQFoJuCTRoUykFiL-23" value="no" style="edgeStyle=orthogonalEdgeStyle;rounded=0;orthogonalLoop=1;jettySize=auto;html=1;" parent="1" source="9emtBQFoJuCTRoUykFiL-6" target="9emtBQFoJuCTRoUykFiL-22" edge="1">
          <mxGeometry relative="1" as="geometry" />
        </mxCell>
        <mxCell id="IY48xeBdSD5oEzKYbFt_-3" style="edgeStyle=orthogonalEdgeStyle;rounded=0;orthogonalLoop=1;jettySize=auto;html=1;exitX=0.5;exitY=1;exitDx=0;exitDy=0;" edge="1" parent="1" source="9emtBQFoJuCTRoUykFiL-6" target="IY48xeBdSD5oEzKYbFt_-1">
          <mxGeometry relative="1" as="geometry" />
        </mxCell>
        <mxCell id="IY48xeBdSD5oEzKYbFt_-8" value="yes" style="edgeLabel;html=1;align=center;verticalAlign=middle;resizable=0;points=[];" vertex="1" connectable="0" parent="IY48xeBdSD5oEzKYbFt_-3">
          <mxGeometry x="-0.266" y="2" relative="1" as="geometry">
            <mxPoint as="offset" />
          </mxGeometry>
        </mxCell>
        <mxCell id="9emtBQFoJuCTRoUykFiL-6" value="Food type&amp;nbsp;&lt;br&gt;expressed?" style="rhombus;whiteSpace=wrap;html=1;fillColor=#76608a;fontColor=#ffffff;strokeColor=#432D57;" parent="1" vertex="1">
          <mxGeometry x="-46.5" y="578" width="90" height="80" as="geometry" />
        </mxCell>
        <mxCell id="IY48xeBdSD5oEzKYbFt_-40" style="edgeStyle=orthogonalEdgeStyle;rounded=0;orthogonalLoop=1;jettySize=auto;html=1;exitX=0.5;exitY=0;exitDx=0;exitDy=0;entryX=1;entryY=0.5;entryDx=0;entryDy=0;" edge="1" parent="1" source="9emtBQFoJuCTRoUykFiL-9" target="9emtBQFoJuCTRoUykFiL-2">
          <mxGeometry relative="1" as="geometry" />
        </mxCell>
        <mxCell id="9emtBQFoJuCTRoUykFiL-9" value="3. Ask area" style="rounded=0;whiteSpace=wrap;html=1;fillColor=#76608a;fontColor=#ffffff;strokeColor=#432D57;" parent="1" vertex="1">
          <mxGeometry x="100" y="-107" width="80" height="40" as="geometry" />
        </mxCell>
        <mxCell id="OZZsg3iI7NkFLa2h2YQp-34" style="edgeStyle=orthogonalEdgeStyle;rounded=0;orthogonalLoop=1;jettySize=auto;html=1;exitX=0.5;exitY=0;exitDx=0;exitDy=0;entryX=1;entryY=0.652;entryDx=0;entryDy=0;entryPerimeter=0;" parent="1" source="9emtBQFoJuCTRoUykFiL-15" target="9emtBQFoJuCTRoUykFiL-2" edge="1">
          <mxGeometry relative="1" as="geometry">
            <mxPoint x="200" y="-336" as="targetPoint" />
          </mxGeometry>
        </mxCell>
        <mxCell id="9emtBQFoJuCTRoUykFiL-15" value="4. Ask price range" style="rounded=0;whiteSpace=wrap;html=1;fillColor=#76608a;fontColor=#ffffff;strokeColor=#432D57;" parent="1" vertex="1">
          <mxGeometry x="160" y="222.75" width="80" height="40" as="geometry" />
        </mxCell>
        <mxCell id="OZZsg3iI7NkFLa2h2YQp-35" style="edgeStyle=orthogonalEdgeStyle;rounded=0;orthogonalLoop=1;jettySize=auto;html=1;exitX=0.5;exitY=0;exitDx=0;exitDy=0;entryX=1;entryY=0.5;entryDx=0;entryDy=0;" parent="1" source="9emtBQFoJuCTRoUykFiL-22" target="9emtBQFoJuCTRoUykFiL-2" edge="1">
          <mxGeometry relative="1" as="geometry" />
        </mxCell>
        <mxCell id="9emtBQFoJuCTRoUykFiL-22" value="5. Ask food type" style="rounded=0;whiteSpace=wrap;html=1;fillColor=#76608a;fontColor=#ffffff;strokeColor=#432D57;" parent="1" vertex="1">
          <mxGeometry x="237" y="598" width="80" height="40" as="geometry" />
        </mxCell>
        <mxCell id="xaN_TmenIA3bTOcWhR8l-3" style="edgeStyle=orthogonalEdgeStyle;rounded=0;orthogonalLoop=1;jettySize=auto;html=1;exitX=1;exitY=0.5;exitDx=0;exitDy=0;entryX=0;entryY=0.5;entryDx=0;entryDy=0;" parent="1" source="9emtBQFoJuCTRoUykFiL-28" target="9emtBQFoJuCTRoUykFiL-34" edge="1">
          <mxGeometry relative="1" as="geometry" />
        </mxCell>
        <mxCell id="9emtBQFoJuCTRoUykFiL-28" value="User response" style="ellipse;whiteSpace=wrap;html=1;fillColor=#6d8764;fontColor=#ffffff;strokeColor=#3A5431;" parent="1" vertex="1">
          <mxGeometry x="653" y="944.25" width="100" height="60" as="geometry" />
        </mxCell>
        <mxCell id="pUPe7-vXU53xOh2iTXP--7" value="yes" style="edgeStyle=orthogonalEdgeStyle;rounded=0;orthogonalLoop=1;jettySize=auto;html=1;entryX=0;entryY=0.5;entryDx=0;entryDy=0;" parent="1" source="9emtBQFoJuCTRoUykFiL-34" target="9emtBQFoJuCTRoUykFiL-46" edge="1">
          <mxGeometry relative="1" as="geometry" />
        </mxCell>
        <mxCell id="xaN_TmenIA3bTOcWhR8l-1" style="edgeStyle=orthogonalEdgeStyle;rounded=0;orthogonalLoop=1;jettySize=auto;html=1;exitX=0.5;exitY=0;exitDx=0;exitDy=0;entryX=1;entryY=0.5;entryDx=0;entryDy=0;" parent="1" source="9emtBQFoJuCTRoUykFiL-34" target="lJSXZF7D1Kf3d4Dtztef-19" edge="1">
          <mxGeometry relative="1" as="geometry" />
        </mxCell>
        <mxCell id="xaN_TmenIA3bTOcWhR8l-2" value="no" style="edgeLabel;html=1;align=center;verticalAlign=middle;resizable=0;points=[];" parent="xaN_TmenIA3bTOcWhR8l-1" vertex="1" connectable="0">
          <mxGeometry x="-0.2286" relative="1" as="geometry">
            <mxPoint as="offset" />
          </mxGeometry>
        </mxCell>
        <mxCell id="9emtBQFoJuCTRoUykFiL-34" value="User asks for restaurant details?" style="rhombus;whiteSpace=wrap;html=1;fillColor=#76608a;fontColor=#ffffff;strokeColor=#432D57;" parent="1" vertex="1">
          <mxGeometry x="810" y="923.75" width="110" height="100" as="geometry" />
        </mxCell>
        <mxCell id="9emtBQFoJuCTRoUykFiL-42" value="" style="edgeStyle=orthogonalEdgeStyle;rounded=0;orthogonalLoop=1;jettySize=auto;html=1;" parent="1" source="9emtBQFoJuCTRoUykFiL-40" target="9emtBQFoJuCTRoUykFiL-41" edge="1">
          <mxGeometry relative="1" as="geometry" />
        </mxCell>
        <mxCell id="9emtBQFoJuCTRoUykFiL-40" value="6. Express that no restaurant is possible with current information" style="rounded=0;whiteSpace=wrap;html=1;fillColor=#76608a;fontColor=#ffffff;strokeColor=#432D57;" parent="1" vertex="1">
          <mxGeometry x="-300" y="628" width="140" height="60" as="geometry" />
        </mxCell>
        <mxCell id="lJSXZF7D1Kf3d4Dtztef-2" style="edgeStyle=orthogonalEdgeStyle;rounded=0;orthogonalLoop=1;jettySize=auto;html=1;exitX=0.5;exitY=0;exitDx=0;exitDy=0;entryX=0.5;entryY=1;entryDx=0;entryDy=0;" parent="1" source="9emtBQFoJuCTRoUykFiL-41" target="lJSXZF7D1Kf3d4Dtztef-1" edge="1">
          <mxGeometry relative="1" as="geometry" />
        </mxCell>
        <mxCell id="9emtBQFoJuCTRoUykFiL-41" value="User Expresses what he/she wants" style="ellipse;whiteSpace=wrap;html=1;fillColor=#6d8764;fontColor=#ffffff;strokeColor=#3A5431;" parent="1" vertex="1">
          <mxGeometry x="-450" y="534.25" width="140" height="80" as="geometry" />
        </mxCell>
        <mxCell id="9emtBQFoJuCTRoUykFiL-44" value="12. Goodbye" style="rounded=0;whiteSpace=wrap;html=1;fillColor=#76608a;fontColor=#ffffff;strokeColor=#432D57;" parent="1" vertex="1">
          <mxGeometry x="1035.15" y="499.5" width="120" height="60" as="geometry" />
        </mxCell>
        <mxCell id="9emtBQFoJuCTRoUykFiL-49" value="" style="edgeStyle=orthogonalEdgeStyle;rounded=0;orthogonalLoop=1;jettySize=auto;html=1;" parent="1" source="9emtBQFoJuCTRoUykFiL-46" target="9emtBQFoJuCTRoUykFiL-48" edge="1">
          <mxGeometry relative="1" as="geometry" />
        </mxCell>
        <mxCell id="9emtBQFoJuCTRoUykFiL-46" value="11. Provide asked restaurant details (such as phone number, address, postal code etc.)" style="rounded=0;whiteSpace=wrap;html=1;fillColor=#76608a;fontColor=#ffffff;strokeColor=#432D57;" parent="1" vertex="1">
          <mxGeometry x="1035" y="928" width="120" height="90" as="geometry" />
        </mxCell>
        <mxCell id="lJSXZF7D1Kf3d4Dtztef-32" style="edgeStyle=orthogonalEdgeStyle;rounded=0;orthogonalLoop=1;jettySize=auto;html=1;exitX=0.5;exitY=0;exitDx=0;exitDy=0;entryX=0.5;entryY=1;entryDx=0;entryDy=0;" parent="1" source="9emtBQFoJuCTRoUykFiL-48" target="9emtBQFoJuCTRoUykFiL-50" edge="1">
          <mxGeometry relative="1" as="geometry">
            <mxPoint x="1095.15" y="805" as="targetPoint" />
          </mxGeometry>
        </mxCell>
        <mxCell id="9emtBQFoJuCTRoUykFiL-48" value="User response" style="ellipse;whiteSpace=wrap;html=1;fillColor=#6d8764;fontColor=#ffffff;strokeColor=#3A5431;" parent="1" vertex="1">
          <mxGeometry x="1040.15" y="759.25" width="110" height="50" as="geometry" />
        </mxCell>
        <mxCell id="9emtBQFoJuCTRoUykFiL-52" value="no" style="edgeStyle=orthogonalEdgeStyle;rounded=0;orthogonalLoop=1;jettySize=auto;html=1;" parent="1" source="9emtBQFoJuCTRoUykFiL-50" target="9emtBQFoJuCTRoUykFiL-44" edge="1">
          <mxGeometry relative="1" as="geometry" />
        </mxCell>
        <mxCell id="lJSXZF7D1Kf3d4Dtztef-30" style="edgeStyle=orthogonalEdgeStyle;rounded=0;orthogonalLoop=1;jettySize=auto;html=1;exitX=1;exitY=0.5;exitDx=0;exitDy=0;entryX=1;entryY=0.5;entryDx=0;entryDy=0;" parent="1" source="9emtBQFoJuCTRoUykFiL-50" target="9emtBQFoJuCTRoUykFiL-46" edge="1">
          <mxGeometry relative="1" as="geometry" />
        </mxCell>
        <mxCell id="lJSXZF7D1Kf3d4Dtztef-31" value="yes" style="edgeLabel;html=1;align=center;verticalAlign=middle;resizable=0;points=[];" parent="lJSXZF7D1Kf3d4Dtztef-30" vertex="1" connectable="0">
          <mxGeometry x="-0.5766" relative="1" as="geometry">
            <mxPoint as="offset" />
          </mxGeometry>
        </mxCell>
        <mxCell id="9emtBQFoJuCTRoUykFiL-50" value="Request that still &lt;br&gt;needs to be &lt;br&gt;handled?" style="rhombus;whiteSpace=wrap;html=1;fillColor=#76608a;fontColor=#ffffff;strokeColor=#432D57;" parent="1" vertex="1">
          <mxGeometry x="1030.15" y="595.5" width="130" height="100" as="geometry" />
        </mxCell>
        <mxCell id="SgVEHP1aC8Nxf148HGIK-13" style="edgeStyle=orthogonalEdgeStyle;rounded=0;orthogonalLoop=1;jettySize=auto;html=1;" parent="1" source="9emtBQFoJuCTRoUykFiL-5" target="9emtBQFoJuCTRoUykFiL-6" edge="1">
          <mxGeometry relative="1" as="geometry">
            <mxPoint x="-10" y="590" as="sourcePoint" />
            <mxPoint x="-1" y="733" as="targetPoint" />
            <Array as="points" />
          </mxGeometry>
        </mxCell>
        <mxCell id="SgVEHP1aC8Nxf148HGIK-14" value="yes" style="edgeLabel;html=1;align=center;verticalAlign=middle;resizable=0;points=[];" parent="SgVEHP1aC8Nxf148HGIK-13" vertex="1" connectable="0">
          <mxGeometry x="-0.1556" y="-1" relative="1" as="geometry">
            <mxPoint as="offset" />
          </mxGeometry>
        </mxCell>
        <mxCell id="NOw_XCwe5CAeWql_Ks_G-12" style="edgeStyle=orthogonalEdgeStyle;rounded=0;orthogonalLoop=1;jettySize=auto;html=1;exitX=0.5;exitY=0;exitDx=0;exitDy=0;entryX=0;entryY=0.5;entryDx=0;entryDy=0;" parent="1" source="pUPe7-vXU53xOh2iTXP--1" target="NOw_XCwe5CAeWql_Ks_G-3" edge="1">
          <mxGeometry relative="1" as="geometry" />
        </mxCell>
        <mxCell id="NOw_XCwe5CAeWql_Ks_G-13" value="yes" style="edgeLabel;html=1;align=center;verticalAlign=middle;resizable=0;points=[];" parent="NOw_XCwe5CAeWql_Ks_G-12" vertex="1" connectable="0">
          <mxGeometry x="-0.3006" y="1" relative="1" as="geometry">
            <mxPoint y="1" as="offset" />
          </mxGeometry>
        </mxCell>
        <mxCell id="OZZsg3iI7NkFLa2h2YQp-5" style="edgeStyle=orthogonalEdgeStyle;rounded=0;orthogonalLoop=1;jettySize=auto;html=1;exitX=0;exitY=0.5;exitDx=0;exitDy=0;entryX=0.5;entryY=0;entryDx=0;entryDy=0;" parent="1" source="pUPe7-vXU53xOh2iTXP--1" target="OZZsg3iI7NkFLa2h2YQp-4" edge="1">
          <mxGeometry relative="1" as="geometry" />
        </mxCell>
        <mxCell id="OZZsg3iI7NkFLa2h2YQp-14" value="no" style="edgeLabel;html=1;align=center;verticalAlign=middle;resizable=0;points=[];" parent="OZZsg3iI7NkFLa2h2YQp-5" vertex="1" connectable="0">
          <mxGeometry x="0.1079" relative="1" as="geometry">
            <mxPoint as="offset" />
          </mxGeometry>
        </mxCell>
        <mxCell id="IY48xeBdSD5oEzKYbFt_-37" style="edgeStyle=orthogonalEdgeStyle;rounded=0;orthogonalLoop=1;jettySize=auto;html=1;exitX=0.5;exitY=0;exitDx=0;exitDy=0;entryX=0;entryY=0.5;entryDx=0;entryDy=0;" edge="1" parent="1" source="pUPe7-vXU53xOh2iTXP--1" target="9emtBQFoJuCTRoUykFiL-2">
          <mxGeometry relative="1" as="geometry" />
        </mxCell>
        <mxCell id="IY48xeBdSD5oEzKYbFt_-38" value="yes" style="edgeLabel;html=1;align=center;verticalAlign=middle;resizable=0;points=[];" vertex="1" connectable="0" parent="IY48xeBdSD5oEzKYbFt_-37">
          <mxGeometry x="-0.8867" y="-2" relative="1" as="geometry">
            <mxPoint as="offset" />
          </mxGeometry>
        </mxCell>
        <mxCell id="pUPe7-vXU53xOh2iTXP--1" value="User wants to change preferences?" style="rhombus;whiteSpace=wrap;html=1;fillColor=#76608a;strokeColor=#432D57;fontColor=#ffffff;" parent="1" vertex="1">
          <mxGeometry x="-430" y="268" width="100" height="90" as="geometry" />
        </mxCell>
        <mxCell id="OZZsg3iI7NkFLa2h2YQp-10" style="edgeStyle=orthogonalEdgeStyle;rounded=0;orthogonalLoop=1;jettySize=auto;html=1;exitX=0.5;exitY=0;exitDx=0;exitDy=0;" parent="1" source="OZZsg3iI7NkFLa2h2YQp-1" target="9emtBQFoJuCTRoUykFiL-40" edge="1">
          <mxGeometry relative="1" as="geometry" />
        </mxCell>
        <mxCell id="OZZsg3iI7NkFLa2h2YQp-13" value="no" style="edgeLabel;html=1;align=center;verticalAlign=middle;resizable=0;points=[];" parent="OZZsg3iI7NkFLa2h2YQp-10" vertex="1" connectable="0">
          <mxGeometry x="-0.0624" relative="1" as="geometry">
            <mxPoint as="offset" />
          </mxGeometry>
        </mxCell>
        <mxCell id="OZZsg3iI7NkFLa2h2YQp-11" style="edgeStyle=orthogonalEdgeStyle;rounded=0;orthogonalLoop=1;jettySize=auto;html=1;exitX=1;exitY=0.5;exitDx=0;exitDy=0;entryX=1;entryY=0.5;entryDx=0;entryDy=0;" parent="1" source="OZZsg3iI7NkFLa2h2YQp-1" target="9emtBQFoJuCTRoUykFiL-44" edge="1">
          <mxGeometry relative="1" as="geometry">
            <Array as="points">
              <mxPoint x="1240" y="1090" />
              <mxPoint x="1240" y="530" />
            </Array>
            <mxPoint x="-20" y="1080.5" as="sourcePoint" />
            <mxPoint x="1315.15" y="520" as="targetPoint" />
          </mxGeometry>
        </mxCell>
        <mxCell id="OZZsg3iI7NkFLa2h2YQp-12" value="yes" style="edgeLabel;html=1;align=center;verticalAlign=middle;resizable=0;points=[];" parent="OZZsg3iI7NkFLa2h2YQp-11" vertex="1" connectable="0">
          <mxGeometry x="-0.4192" y="4" relative="1" as="geometry">
            <mxPoint as="offset" />
          </mxGeometry>
        </mxCell>
        <mxCell id="OZZsg3iI7NkFLa2h2YQp-1" value="Confirmation of exit" style="rhombus;whiteSpace=wrap;html=1;fillColor=#76608a;fontColor=#ffffff;strokeColor=#432D57;" parent="1" vertex="1">
          <mxGeometry x="-280" y="735" width="100" height="90" as="geometry" />
        </mxCell>
        <mxCell id="OZZsg3iI7NkFLa2h2YQp-8" style="edgeStyle=orthogonalEdgeStyle;rounded=0;orthogonalLoop=1;jettySize=auto;html=1;exitX=1;exitY=0.5;exitDx=0;exitDy=0;" parent="1" source="OZZsg3iI7NkFLa2h2YQp-4" target="OZZsg3iI7NkFLa2h2YQp-7" edge="1">
          <mxGeometry relative="1" as="geometry" />
        </mxCell>
        <mxCell id="OZZsg3iI7NkFLa2h2YQp-4" value="8. Confirm user wants to leave" style="rounded=0;whiteSpace=wrap;html=1;fillColor=#76608a;fontColor=#ffffff;strokeColor=#432D57;" parent="1" vertex="1">
          <mxGeometry x="-654" y="750" width="120" height="60" as="geometry" />
        </mxCell>
        <mxCell id="lJSXZF7D1Kf3d4Dtztef-12" style="edgeStyle=orthogonalEdgeStyle;rounded=0;orthogonalLoop=1;jettySize=auto;html=1;exitX=1;exitY=0.5;exitDx=0;exitDy=0;entryX=0;entryY=0.5;entryDx=0;entryDy=0;" parent="1" source="OZZsg3iI7NkFLa2h2YQp-7" target="OZZsg3iI7NkFLa2h2YQp-1" edge="1">
          <mxGeometry relative="1" as="geometry">
            <mxPoint x="-425" y="780" as="targetPoint" />
          </mxGeometry>
        </mxCell>
        <mxCell id="OZZsg3iI7NkFLa2h2YQp-7" value="User response" style="ellipse;whiteSpace=wrap;html=1;fillColor=#6d8764;fontColor=#ffffff;strokeColor=#3A5431;" parent="1" vertex="1">
          <mxGeometry x="-490" y="755" width="97.5" height="50" as="geometry" />
        </mxCell>
        <mxCell id="OZZsg3iI7NkFLa2h2YQp-26" style="edgeStyle=orthogonalEdgeStyle;rounded=0;orthogonalLoop=1;jettySize=auto;html=1;exitX=0;exitY=0.25;exitDx=0;exitDy=0;entryX=1;entryY=0;entryDx=0;entryDy=0;" parent="1" edge="1">
          <mxGeometry relative="1" as="geometry">
            <mxPoint x="332" y="-233.25" as="sourcePoint" />
            <mxPoint x="51.92640687119274" y="-232.67766952966372" as="targetPoint" />
            <Array as="points">
              <mxPoint x="147" y="-233" />
            </Array>
          </mxGeometry>
        </mxCell>
        <mxCell id="OZZsg3iI7NkFLa2h2YQp-19" value="2. Ask for correction with error message" style="rounded=0;whiteSpace=wrap;html=1;fillColor=#76608a;strokeColor=#432D57;fontColor=#ffffff;" parent="1" vertex="1">
          <mxGeometry x="320" y="-253" width="105" height="51" as="geometry" />
        </mxCell>
        <mxCell id="lJSXZF7D1Kf3d4Dtztef-3" style="edgeStyle=orthogonalEdgeStyle;rounded=0;orthogonalLoop=1;jettySize=auto;html=1;exitX=0.5;exitY=0;exitDx=0;exitDy=0;entryX=0.5;entryY=1;entryDx=0;entryDy=0;" parent="1" source="lJSXZF7D1Kf3d4Dtztef-1" target="pUPe7-vXU53xOh2iTXP--1" edge="1">
          <mxGeometry relative="1" as="geometry" />
        </mxCell>
        <mxCell id="lJSXZF7D1Kf3d4Dtztef-4" value="no" style="edgeLabel;html=1;align=center;verticalAlign=middle;resizable=0;points=[];" parent="lJSXZF7D1Kf3d4Dtztef-3" vertex="1" connectable="0">
          <mxGeometry x="-0.0484" y="1" relative="1" as="geometry">
            <mxPoint as="offset" />
          </mxGeometry>
        </mxCell>
        <mxCell id="lJSXZF7D1Kf3d4Dtztef-8" style="edgeStyle=orthogonalEdgeStyle;rounded=0;orthogonalLoop=1;jettySize=auto;html=1;exitX=0;exitY=0.5;exitDx=0;exitDy=0;entryX=1;entryY=0.5;entryDx=0;entryDy=0;" parent="1" source="lJSXZF7D1Kf3d4Dtztef-1" target="lJSXZF7D1Kf3d4Dtztef-5" edge="1">
          <mxGeometry relative="1" as="geometry" />
        </mxCell>
        <mxCell id="lJSXZF7D1Kf3d4Dtztef-9" value="yes" style="edgeLabel;html=1;align=center;verticalAlign=middle;resizable=0;points=[];" parent="lJSXZF7D1Kf3d4Dtztef-8" vertex="1" connectable="0">
          <mxGeometry x="-0.1222" y="2" relative="1" as="geometry">
            <mxPoint as="offset" />
          </mxGeometry>
        </mxCell>
        <mxCell id="lJSXZF7D1Kf3d4Dtztef-1" value="Big misspelling detected" style="rhombus;whiteSpace=wrap;html=1;fillColor=#76608a;fontColor=#ffffff;strokeColor=#432D57;" parent="1" vertex="1">
          <mxGeometry x="-430" y="404.25" width="100" height="80" as="geometry" />
        </mxCell>
        <mxCell id="lJSXZF7D1Kf3d4Dtztef-10" style="edgeStyle=orthogonalEdgeStyle;rounded=0;orthogonalLoop=1;jettySize=auto;html=1;exitX=0.5;exitY=1;exitDx=0;exitDy=0;entryX=-0.003;entryY=0.566;entryDx=0;entryDy=0;entryPerimeter=0;" parent="1" source="lJSXZF7D1Kf3d4Dtztef-5" target="9emtBQFoJuCTRoUykFiL-41" edge="1">
          <mxGeometry relative="1" as="geometry" />
        </mxCell>
        <mxCell id="lJSXZF7D1Kf3d4Dtztef-5" value="7. Ask for correction with error message" style="rounded=0;whiteSpace=wrap;html=1;fillColor=#76608a;strokeColor=#432D57;fontColor=#ffffff;" parent="1" vertex="1">
          <mxGeometry x="-580" y="418.75" width="105" height="51" as="geometry" />
        </mxCell>
        <mxCell id="xaN_TmenIA3bTOcWhR8l-4" style="edgeStyle=orthogonalEdgeStyle;rounded=0;orthogonalLoop=1;jettySize=auto;html=1;exitX=0.5;exitY=0;exitDx=0;exitDy=0;entryX=0;entryY=0.5;entryDx=0;entryDy=0;" parent="1" source="lJSXZF7D1Kf3d4Dtztef-19" target="9emtBQFoJuCTRoUykFiL-44" edge="1">
          <mxGeometry relative="1" as="geometry" />
        </mxCell>
        <mxCell id="xaN_TmenIA3bTOcWhR8l-5" value="yes" style="edgeLabel;html=1;align=center;verticalAlign=middle;resizable=0;points=[];" parent="xaN_TmenIA3bTOcWhR8l-4" vertex="1" connectable="0">
          <mxGeometry x="-0.4432" y="1" relative="1" as="geometry">
            <mxPoint as="offset" />
          </mxGeometry>
        </mxCell>
        <mxCell id="xaN_TmenIA3bTOcWhR8l-6" style="edgeStyle=orthogonalEdgeStyle;rounded=0;orthogonalLoop=1;jettySize=auto;html=1;exitX=0.5;exitY=1;exitDx=0;exitDy=0;entryX=0.5;entryY=0;entryDx=0;entryDy=0;" parent="1" source="lJSXZF7D1Kf3d4Dtztef-19" target="9emtBQFoJuCTRoUykFiL-1" edge="1">
          <mxGeometry relative="1" as="geometry">
            <Array as="points">
              <mxPoint x="550" y="858.5" />
              <mxPoint x="360" y="859.5" />
            </Array>
          </mxGeometry>
        </mxCell>
        <mxCell id="xaN_TmenIA3bTOcWhR8l-7" value="no" style="edgeLabel;html=1;align=center;verticalAlign=middle;resizable=0;points=[];" parent="xaN_TmenIA3bTOcWhR8l-6" vertex="1" connectable="0">
          <mxGeometry x="-0.022" relative="1" as="geometry">
            <mxPoint as="offset" />
          </mxGeometry>
        </mxCell>
        <mxCell id="lJSXZF7D1Kf3d4Dtztef-19" value="User wants to leave?" style="rhombus;whiteSpace=wrap;html=1;fillColor=#76608a;fontColor=#ffffff;strokeColor=#432D57;" parent="1" vertex="1">
          <mxGeometry x="700.15" y="775.5" width="100" height="80" as="geometry" />
        </mxCell>
        <mxCell id="qg6AqYRdWCEbCaG56nRq-2" value="no" style="edgeStyle=orthogonalEdgeStyle;rounded=0;orthogonalLoop=1;jettySize=auto;html=1;entryX=0;entryY=0.5;entryDx=0;entryDy=0;" parent="1" source="F_FJY7EMFOjxKulT_jWd-1" target="9emtBQFoJuCTRoUykFiL-1" edge="1">
          <mxGeometry relative="1" as="geometry" />
        </mxCell>
        <mxCell id="qg6AqYRdWCEbCaG56nRq-1" value="&lt;div&gt;9. Ask for additional&lt;/div&gt;&lt;div&gt;requirements&lt;br&gt;&lt;/div&gt;" style="rounded=0;whiteSpace=wrap;html=1;fillColor=#76608a;fontColor=#ffffff;strokeColor=#432D57;" parent="1" vertex="1">
          <mxGeometry x="94" y="821.5" width="120" height="60" as="geometry" />
        </mxCell>
        <mxCell id="qg6AqYRdWCEbCaG56nRq-4" value="" style="edgeStyle=orthogonalEdgeStyle;rounded=0;orthogonalLoop=1;jettySize=auto;html=1;entryX=0;entryY=0.5;entryDx=0;entryDy=0;" parent="1" source="qg6AqYRdWCEbCaG56nRq-1" target="qg6AqYRdWCEbCaG56nRq-3" edge="1">
          <mxGeometry relative="1" as="geometry">
            <mxPoint x="214" y="852" as="sourcePoint" />
            <mxPoint x="342" y="852" as="targetPoint" />
          </mxGeometry>
        </mxCell>
        <mxCell id="qg6AqYRdWCEbCaG56nRq-3" value="User response" style="ellipse;whiteSpace=wrap;html=1;fillColor=#6d8764;fontColor=#ffffff;strokeColor=#3A5431;" parent="1" vertex="1">
          <mxGeometry x="247" y="821.75" width="100" height="60" as="geometry" />
        </mxCell>
        <mxCell id="IY48xeBdSD5oEzKYbFt_-4" style="edgeStyle=orthogonalEdgeStyle;rounded=0;orthogonalLoop=1;jettySize=auto;html=1;exitX=0.5;exitY=1;exitDx=0;exitDy=0;entryX=0.5;entryY=0;entryDx=0;entryDy=0;" edge="1" parent="1" source="IY48xeBdSD5oEzKYbFt_-1" target="IY48xeBdSD5oEzKYbFt_-2">
          <mxGeometry relative="1" as="geometry" />
        </mxCell>
        <mxCell id="IY48xeBdSD5oEzKYbFt_-7" value="no" style="edgeLabel;html=1;align=center;verticalAlign=middle;resizable=0;points=[];" vertex="1" connectable="0" parent="IY48xeBdSD5oEzKYbFt_-4">
          <mxGeometry x="-0.2463" relative="1" as="geometry">
            <mxPoint as="offset" />
          </mxGeometry>
        </mxCell>
        <mxCell id="IY48xeBdSD5oEzKYbFt_-27" style="edgeStyle=orthogonalEdgeStyle;rounded=0;orthogonalLoop=1;jettySize=auto;html=1;exitX=1;exitY=0.5;exitDx=0;exitDy=0;entryX=0.75;entryY=1;entryDx=0;entryDy=0;" edge="1" parent="1" source="IY48xeBdSD5oEzKYbFt_-1" target="OZZsg3iI7NkFLa2h2YQp-19">
          <mxGeometry relative="1" as="geometry" />
        </mxCell>
        <mxCell id="IY48xeBdSD5oEzKYbFt_-30" value="yes" style="edgeLabel;html=1;align=center;verticalAlign=middle;resizable=0;points=[];" vertex="1" connectable="0" parent="IY48xeBdSD5oEzKYbFt_-27">
          <mxGeometry x="-0.8956" y="-1" relative="1" as="geometry">
            <mxPoint x="52" y="-123" as="offset" />
          </mxGeometry>
        </mxCell>
        <mxCell id="IY48xeBdSD5oEzKYbFt_-41" value="" style="edgeStyle=orthogonalEdgeStyle;rounded=0;orthogonalLoop=1;jettySize=auto;html=1;" edge="1" parent="1" source="IY48xeBdSD5oEzKYbFt_-1" target="IY48xeBdSD5oEzKYbFt_-2">
          <mxGeometry relative="1" as="geometry" />
        </mxCell>
        <mxCell id="IY48xeBdSD5oEzKYbFt_-1" value="Big food type misspelling detected" style="rhombus;whiteSpace=wrap;html=1;fillColor=#76608a;fontColor=#ffffff;strokeColor=#432D57;" vertex="1" parent="1">
          <mxGeometry x="-51.5" y="696" width="100" height="80" as="geometry" />
        </mxCell>
        <mxCell id="IY48xeBdSD5oEzKYbFt_-33" style="edgeStyle=orthogonalEdgeStyle;rounded=0;orthogonalLoop=1;jettySize=auto;html=1;exitX=0;exitY=0.5;exitDx=0;exitDy=0;entryX=0.75;entryY=0;entryDx=0;entryDy=0;" edge="1" parent="1" source="IY48xeBdSD5oEzKYbFt_-2" target="9emtBQFoJuCTRoUykFiL-40">
          <mxGeometry relative="1" as="geometry" />
        </mxCell>
        <mxCell id="IY48xeBdSD5oEzKYbFt_-34" value="no" style="edgeLabel;html=1;align=center;verticalAlign=middle;resizable=0;points=[];" vertex="1" connectable="0" parent="IY48xeBdSD5oEzKYbFt_-33">
          <mxGeometry x="-0.4717" y="4" relative="1" as="geometry">
            <mxPoint as="offset" />
          </mxGeometry>
        </mxCell>
        <mxCell id="IY48xeBdSD5oEzKYbFt_-42" style="edgeStyle=orthogonalEdgeStyle;rounded=0;orthogonalLoop=1;jettySize=auto;html=1;exitX=1;exitY=0.5;exitDx=0;exitDy=0;entryX=0;entryY=0.5;entryDx=0;entryDy=0;" edge="1" parent="1" source="IY48xeBdSD5oEzKYbFt_-2" target="qg6AqYRdWCEbCaG56nRq-1">
          <mxGeometry relative="1" as="geometry" />
        </mxCell>
        <mxCell id="IY48xeBdSD5oEzKYbFt_-43" value="yes" style="edgeLabel;html=1;align=center;verticalAlign=middle;resizable=0;points=[];" vertex="1" connectable="0" parent="IY48xeBdSD5oEzKYbFt_-42">
          <mxGeometry x="-0.1075" y="1" relative="1" as="geometry">
            <mxPoint as="offset" />
          </mxGeometry>
        </mxCell>
        <mxCell id="IY48xeBdSD5oEzKYbFt_-2" value="Restaurant with given preferences exists?" style="rhombus;whiteSpace=wrap;html=1;fillColor=#76608a;fontColor=#ffffff;strokeColor=#432D57;" vertex="1" parent="1">
          <mxGeometry x="-51.5" y="806.75" width="100" height="90" as="geometry" />
        </mxCell>
        <mxCell id="IY48xeBdSD5oEzKYbFt_-12" style="edgeStyle=orthogonalEdgeStyle;rounded=0;orthogonalLoop=1;jettySize=auto;html=1;exitX=0.5;exitY=1;exitDx=0;exitDy=0;entryX=0.5;entryY=0;entryDx=0;entryDy=0;" edge="1" parent="1" source="IY48xeBdSD5oEzKYbFt_-9" target="IY48xeBdSD5oEzKYbFt_-10">
          <mxGeometry relative="1" as="geometry" />
        </mxCell>
        <mxCell id="IY48xeBdSD5oEzKYbFt_-15" value="no" style="edgeLabel;html=1;align=center;verticalAlign=middle;resizable=0;points=[];" vertex="1" connectable="0" parent="IY48xeBdSD5oEzKYbFt_-12">
          <mxGeometry x="-0.3407" y="-2" relative="1" as="geometry">
            <mxPoint as="offset" />
          </mxGeometry>
        </mxCell>
        <mxCell id="IY48xeBdSD5oEzKYbFt_-26" style="edgeStyle=orthogonalEdgeStyle;rounded=0;orthogonalLoop=1;jettySize=auto;html=1;exitX=1;exitY=0.5;exitDx=0;exitDy=0;entryX=0.5;entryY=1;entryDx=0;entryDy=0;" edge="1" parent="1" source="IY48xeBdSD5oEzKYbFt_-9" target="OZZsg3iI7NkFLa2h2YQp-19">
          <mxGeometry relative="1" as="geometry" />
        </mxCell>
        <mxCell id="IY48xeBdSD5oEzKYbFt_-29" value="yes" style="edgeLabel;html=1;align=center;verticalAlign=middle;resizable=0;points=[];" vertex="1" connectable="0" parent="IY48xeBdSD5oEzKYbFt_-26">
          <mxGeometry x="-0.8826" y="-3" relative="1" as="geometry">
            <mxPoint as="offset" />
          </mxGeometry>
        </mxCell>
        <mxCell id="IY48xeBdSD5oEzKYbFt_-9" value="Big price range misspelling detected" style="rhombus;whiteSpace=wrap;html=1;fillColor=#76608a;fontColor=#ffffff;strokeColor=#432D57;" vertex="1" parent="1">
          <mxGeometry x="-52.5" y="330" width="100" height="80" as="geometry" />
        </mxCell>
        <mxCell id="IY48xeBdSD5oEzKYbFt_-13" style="edgeStyle=orthogonalEdgeStyle;rounded=0;orthogonalLoop=1;jettySize=auto;html=1;exitX=0.5;exitY=1;exitDx=0;exitDy=0;entryX=0.5;entryY=0;entryDx=0;entryDy=0;" edge="1" parent="1" source="IY48xeBdSD5oEzKYbFt_-10" target="9emtBQFoJuCTRoUykFiL-6">
          <mxGeometry relative="1" as="geometry" />
        </mxCell>
        <mxCell id="IY48xeBdSD5oEzKYbFt_-14" value="yes" style="edgeLabel;html=1;align=center;verticalAlign=middle;resizable=0;points=[];" vertex="1" connectable="0" parent="IY48xeBdSD5oEzKYbFt_-13">
          <mxGeometry x="-0.1813" relative="1" as="geometry">
            <mxPoint as="offset" />
          </mxGeometry>
        </mxCell>
        <mxCell id="IY48xeBdSD5oEzKYbFt_-32" style="edgeStyle=orthogonalEdgeStyle;rounded=0;orthogonalLoop=1;jettySize=auto;html=1;exitX=0;exitY=0.5;exitDx=0;exitDy=0;entryX=0.5;entryY=0;entryDx=0;entryDy=0;" edge="1" parent="1" source="IY48xeBdSD5oEzKYbFt_-10" target="9emtBQFoJuCTRoUykFiL-40">
          <mxGeometry relative="1" as="geometry" />
        </mxCell>
        <mxCell id="IY48xeBdSD5oEzKYbFt_-35" value="no" style="edgeLabel;html=1;align=center;verticalAlign=middle;resizable=0;points=[];" vertex="1" connectable="0" parent="IY48xeBdSD5oEzKYbFt_-32">
          <mxGeometry x="-0.7812" y="6" relative="1" as="geometry">
            <mxPoint as="offset" />
          </mxGeometry>
        </mxCell>
        <mxCell id="IY48xeBdSD5oEzKYbFt_-10" value="Restaurant with given area and price range exists?" style="rhombus;whiteSpace=wrap;html=1;fillColor=#76608a;fontColor=#ffffff;strokeColor=#432D57;" vertex="1" parent="1">
          <mxGeometry x="-51.5" y="440" width="100" height="90" as="geometry" />
        </mxCell>
        <mxCell id="IY48xeBdSD5oEzKYbFt_-20" style="edgeStyle=orthogonalEdgeStyle;rounded=0;orthogonalLoop=1;jettySize=auto;html=1;exitX=0.5;exitY=1;exitDx=0;exitDy=0;entryX=0.5;entryY=0;entryDx=0;entryDy=0;" edge="1" parent="1" source="IY48xeBdSD5oEzKYbFt_-17" target="IY48xeBdSD5oEzKYbFt_-18">
          <mxGeometry relative="1" as="geometry" />
        </mxCell>
        <mxCell id="IY48xeBdSD5oEzKYbFt_-23" value="no" style="edgeLabel;html=1;align=center;verticalAlign=middle;resizable=0;points=[];" vertex="1" connectable="0" parent="IY48xeBdSD5oEzKYbFt_-20">
          <mxGeometry x="-0.2556" y="1" relative="1" as="geometry">
            <mxPoint as="offset" />
          </mxGeometry>
        </mxCell>
        <mxCell id="IY48xeBdSD5oEzKYbFt_-25" style="edgeStyle=orthogonalEdgeStyle;rounded=0;orthogonalLoop=1;jettySize=auto;html=1;exitX=1;exitY=0.5;exitDx=0;exitDy=0;entryX=0.25;entryY=1;entryDx=0;entryDy=0;" edge="1" parent="1" source="IY48xeBdSD5oEzKYbFt_-17" target="OZZsg3iI7NkFLa2h2YQp-19">
          <mxGeometry relative="1" as="geometry" />
        </mxCell>
        <mxCell id="IY48xeBdSD5oEzKYbFt_-28" value="yes" style="edgeLabel;html=1;align=center;verticalAlign=middle;resizable=0;points=[];" vertex="1" connectable="0" parent="IY48xeBdSD5oEzKYbFt_-25">
          <mxGeometry x="-0.8488" y="5" relative="1" as="geometry">
            <mxPoint as="offset" />
          </mxGeometry>
        </mxCell>
        <mxCell id="IY48xeBdSD5oEzKYbFt_-17" value="Big area misspelling detected" style="rhombus;whiteSpace=wrap;html=1;fillColor=#76608a;fontColor=#ffffff;strokeColor=#432D57;" vertex="1" parent="1">
          <mxGeometry x="-51.5" y="-20" width="100" height="80" as="geometry" />
        </mxCell>
        <mxCell id="IY48xeBdSD5oEzKYbFt_-21" style="edgeStyle=orthogonalEdgeStyle;rounded=0;orthogonalLoop=1;jettySize=auto;html=1;exitX=0.5;exitY=1;exitDx=0;exitDy=0;entryX=0.5;entryY=0;entryDx=0;entryDy=0;" edge="1" parent="1" source="IY48xeBdSD5oEzKYbFt_-18" target="9emtBQFoJuCTRoUykFiL-5">
          <mxGeometry relative="1" as="geometry" />
        </mxCell>
        <mxCell id="IY48xeBdSD5oEzKYbFt_-24" value="yes" style="edgeLabel;html=1;align=center;verticalAlign=middle;resizable=0;points=[];" vertex="1" connectable="0" parent="IY48xeBdSD5oEzKYbFt_-21">
          <mxGeometry x="-0.2605" relative="1" as="geometry">
            <mxPoint as="offset" />
          </mxGeometry>
        </mxCell>
        <mxCell id="IY48xeBdSD5oEzKYbFt_-31" style="edgeStyle=orthogonalEdgeStyle;rounded=0;orthogonalLoop=1;jettySize=auto;html=1;exitX=0;exitY=0.5;exitDx=0;exitDy=0;entryX=0.25;entryY=0;entryDx=0;entryDy=0;" edge="1" parent="1" source="IY48xeBdSD5oEzKYbFt_-18" target="9emtBQFoJuCTRoUykFiL-40">
          <mxGeometry relative="1" as="geometry" />
        </mxCell>
        <mxCell id="IY48xeBdSD5oEzKYbFt_-36" value="no" style="edgeLabel;html=1;align=center;verticalAlign=middle;resizable=0;points=[];" vertex="1" connectable="0" parent="IY48xeBdSD5oEzKYbFt_-31">
          <mxGeometry x="-0.8386" relative="1" as="geometry">
            <mxPoint as="offset" />
          </mxGeometry>
        </mxCell>
        <mxCell id="IY48xeBdSD5oEzKYbFt_-18" value="Restaurant with given area exists?" style="rhombus;whiteSpace=wrap;html=1;fillColor=#76608a;fontColor=#ffffff;strokeColor=#432D57;" vertex="1" parent="1">
          <mxGeometry x="-52.5" y="90" width="100" height="90" as="geometry" />
        </mxCell>
        <mxCell id="F_FJY7EMFOjxKulT_jWd-2" value="" style="edgeStyle=orthogonalEdgeStyle;rounded=0;orthogonalLoop=1;jettySize=auto;html=1;entryX=0;entryY=0.5;entryDx=0;entryDy=0;" edge="1" parent="1" source="qg6AqYRdWCEbCaG56nRq-3" target="F_FJY7EMFOjxKulT_jWd-1">
          <mxGeometry relative="1" as="geometry">
            <mxPoint x="295" y="975" as="sourcePoint" />
            <mxPoint x="490" y="974" as="targetPoint" />
          </mxGeometry>
        </mxCell>
        <mxCell id="F_FJY7EMFOjxKulT_jWd-3" value="yes" style="edgeStyle=orthogonalEdgeStyle;rounded=0;orthogonalLoop=1;jettySize=auto;html=1;exitX=0.5;exitY=0;exitDx=0;exitDy=0;entryX=0.5;entryY=0;entryDx=0;entryDy=0;" edge="1" parent="1" source="F_FJY7EMFOjxKulT_jWd-1" target="qg6AqYRdWCEbCaG56nRq-1">
          <mxGeometry relative="1" as="geometry" />
        </mxCell>
        <mxCell id="F_FJY7EMFOjxKulT_jWd-1" value="&lt;div&gt;No restaurant&lt;/div&gt;&lt;div&gt;&amp;nbsp;fits additional requirements ?&lt;br&gt;&lt;/div&gt;" style="rhombus;whiteSpace=wrap;html=1;fillColor=#76608a;fontColor=#ffffff;strokeColor=#432D57;" vertex="1" parent="1">
          <mxGeometry x="323" y="918" width="120" height="113.75" as="geometry" />
          
        </mxCell>
        <mxCell id="F_FJY7EMFOjxKulT_jWd-2" value="" style="edgeStyle=orthogonalEdgeStyle;rounded=0;orthogonalLoop=1;jettySize=auto;html=1;entryX=0;entryY=0.5;entryDx=0;entryDy=0;" edge="1" parent="1" source="qg6AqYRdWCEbCaG56nRq-3" target="F_FJY7EMFOjxKulT_jWd-1">
          <mxGeometry relative="1" as="geometry">
            <mxPoint x="295" y="975" as="sourcePoint" />
            <mxPoint x="490" y="974" as="targetPoint" />
          </mxGeometry>
        </mxCell>
        <mxCell id="F_FJY7EMFOjxKulT_jWd-3" value="yes" style="edgeStyle=orthogonalEdgeStyle;rounded=0;orthogonalLoop=1;jettySize=auto;html=1;exitX=0.5;exitY=0;exitDx=0;exitDy=0;entryX=0.5;entryY=0;entryDx=0;entryDy=0;" edge="1" parent="1" source="F_FJY7EMFOjxKulT_jWd-1" target="qg6AqYRdWCEbCaG56nRq-1">
          <mxGeometry relative="1" as="geometry" />
        </mxCell>
        <mxCell id="F_FJY7EMFOjxKulT_jWd-1" value="&lt;div&gt;No restaurant&lt;/div&gt;&lt;div&gt;&amp;nbsp;fits additional requirements ?&lt;br&gt;&lt;/div&gt;" style="rhombus;whiteSpace=wrap;html=1;fillColor=#76608a;fontColor=#ffffff;strokeColor=#432D57;" vertex="1" parent="1">
          <mxGeometry x="323" y="918" width="120" height="113.75" as="geometry" />
        </mxCell>
      </root>
    </mxGraphModel>
  </diagram>
</mxfile>
